<mxfile host="app.diagrams.net" agent="Mozilla/5.0 (Windows NT 10.0; Win64; x64; rv:143.0) Gecko/20100101 Firefox/143.0" version="28.2.7">
  <diagram name="Page-1" id="um6HprOgmlatR75-x4Ov">
    <mxGraphModel dx="1095" dy="790" grid="1" gridSize="10" guides="1" tooltips="1" connect="1" arrows="1" fold="1" page="1" pageScale="1" pageWidth="1100" pageHeight="850" math="0" shadow="0">
      <root>
        <mxCell id="0" />
        <mxCell id="1" parent="0" />
        <mxCell id="mIyz_2zXa_5hhBJOPnVT-1" value="Data Sources" style="swimlane;html=1;startSize=20;fontStyle=0;collapsible=0;horizontal=0;swimlaneLine=1;swimlaneFillColor=#ffffff;strokeWidth=2;whiteSpace=wrap;" vertex="1" parent="1">
          <mxGeometry x="20" y="30" width="1060" height="100" as="geometry" />
        </mxCell>
        <mxCell id="mIyz_2zXa_5hhBJOPnVT-2" value="Stock Price" style="shape=mxgraph.bpmn.data2;labelPosition=center;verticalLabelPosition=bottom;align=center;verticalAlign=top;size=15;html=1;" vertex="1" parent="mIyz_2zXa_5hhBJOPnVT-1">
          <mxGeometry x="60" y="10" width="40" height="60" as="geometry" />
        </mxCell>
        <mxCell id="mIyz_2zXa_5hhBJOPnVT-3" value="ETF Data" style="shape=mxgraph.bpmn.data2;labelPosition=center;verticalLabelPosition=bottom;align=center;verticalAlign=top;size=15;html=1;" vertex="1" parent="mIyz_2zXa_5hhBJOPnVT-1">
          <mxGeometry x="130" y="10" width="40" height="60" as="geometry" />
        </mxCell>
        <mxCell id="mIyz_2zXa_5hhBJOPnVT-4" value="Options" style="shape=mxgraph.bpmn.data2;labelPosition=center;verticalLabelPosition=bottom;align=center;verticalAlign=top;size=15;html=1;" vertex="1" parent="mIyz_2zXa_5hhBJOPnVT-1">
          <mxGeometry x="200" y="10" width="40" height="60" as="geometry" />
        </mxCell>
      </root>
    </mxGraphModel>
  </diagram>
</mxfile>
